%TF.GenerationSoftware,KiCad,Pcbnew,6.0.10+dfsg-1~bpo11+1*%
%TF.CreationDate,2023-01-17T09:00:28+03:00*%
%TF.ProjectId,e22-22dBm,6532322d-3232-4644-926d-2e6b69636164,rev?*%
%TF.SameCoordinates,Original*%
%TF.FileFunction,Copper,L1,Top*%
%TF.FilePolarity,Positive*%
%FSLAX46Y46*%
G04 Gerber Fmt 4.6, Leading zero omitted, Abs format (unit mm)*
G04 Created by KiCad (PCBNEW 6.0.10+dfsg-1~bpo11+1) date 2023-01-17 09:00:28*
%MOMM*%
%LPD*%
G01*
G04 APERTURE LIST*
%TA.AperFunction,SMDPad,CuDef*%
%ADD10R,1.800000X0.900000*%
%TD*%
%TA.AperFunction,ComponentPad*%
%ADD11R,1.700000X1.700000*%
%TD*%
%TA.AperFunction,ComponentPad*%
%ADD12O,1.700000X1.700000*%
%TD*%
%TA.AperFunction,Conductor*%
%ADD13C,0.500000*%
%TD*%
G04 APERTURE END LIST*
D10*
%TO.P,U1,1,GND@1*%
%TO.N,Net-(J2-Pad1)*%
X143000000Y-91000000D03*
%TO.P,U1,2,GND@2*%
X143000000Y-92270000D03*
%TO.P,U1,3,GND@3*%
X143000000Y-93540000D03*
%TO.P,U1,4,GND@4*%
X143000000Y-99110000D03*
%TO.P,U1,5,GND@5*%
%TO.N,Net-(J2-Pad2)*%
X143000000Y-100380000D03*
%TO.P,U1,6,RXEN*%
%TO.N,Net-(J2-Pad3)*%
X143000000Y-101650000D03*
%TO.P,U1,7,TXEN*%
%TO.N,Net-(J2-Pad4)*%
X143000000Y-102920000D03*
%TO.P,U1,8,DIO2*%
%TO.N,Net-(J2-Pad5)*%
X143000000Y-104190000D03*
%TO.P,U1,9,VCC*%
%TO.N,Net-(J2-Pad6)*%
X143000000Y-105460000D03*
%TO.P,U1,10,GND@4*%
%TO.N,Net-(J2-Pad7)*%
X143000000Y-106730000D03*
%TO.P,U1,11,GND@5*%
%TO.N,GND*%
X143000000Y-108000000D03*
%TO.P,U1,12,GND@6*%
X157000000Y-108000000D03*
%TO.P,U1,13,DIO1*%
%TO.N,Net-(J1-Pad7)*%
X157000000Y-106730000D03*
%TO.P,U1,14,BUSY*%
%TO.N,Net-(J1-Pad6)*%
X157000000Y-105460000D03*
%TO.P,U1,15,NRST*%
%TO.N,Net-(J1-Pad5)*%
X157000000Y-104190000D03*
%TO.P,U1,16,MISO*%
%TO.N,Net-(J1-Pad4)*%
X157000000Y-102920000D03*
%TO.P,U1,17,MOSI*%
%TO.N,Net-(J1-Pad3)*%
X157000000Y-101650000D03*
%TO.P,U1,18,SCK*%
%TO.N,Net-(J1-Pad2)*%
X157000000Y-100380000D03*
%TO.P,U1,19,NSS*%
%TO.N,Net-(J1-Pad1)*%
X157000000Y-99110000D03*
%TO.P,U1,20,GND@7*%
%TO.N,unconnected-(U1-Pad20)*%
X157000000Y-93540000D03*
%TO.P,U1,21,ANT*%
%TO.N,unconnected-(U1-Pad21)*%
X157000000Y-92270000D03*
%TO.P,U1,22,GND@8*%
%TO.N,unconnected-(U1-Pad22)*%
X157000000Y-91000000D03*
%TD*%
D11*
%TO.P,J1,1,Pin_1*%
%TO.N,Net-(J1-Pad1)*%
X167780000Y-92000000D03*
D12*
%TO.P,J1,2,Pin_2*%
%TO.N,Net-(J1-Pad2)*%
X167780000Y-94540000D03*
%TO.P,J1,3,Pin_3*%
%TO.N,Net-(J1-Pad3)*%
X167780000Y-97080000D03*
%TO.P,J1,4,Pin_4*%
%TO.N,Net-(J1-Pad4)*%
X167780000Y-99620000D03*
%TO.P,J1,5,Pin_5*%
%TO.N,Net-(J1-Pad5)*%
X167780000Y-102160000D03*
%TO.P,J1,6,Pin_6*%
%TO.N,Net-(J1-Pad6)*%
X167780000Y-104700000D03*
%TO.P,J1,7,Pin_7*%
%TO.N,Net-(J1-Pad7)*%
X167780000Y-107240000D03*
%TO.P,J1,8,Pin_8*%
%TO.N,GND*%
X167780000Y-109780000D03*
%TD*%
D11*
%TO.P,J2,1,Pin_1*%
%TO.N,Net-(J2-Pad1)*%
X132220000Y-92000000D03*
D12*
%TO.P,J2,2,Pin_2*%
%TO.N,Net-(J2-Pad2)*%
X132220000Y-94540000D03*
%TO.P,J2,3,Pin_3*%
%TO.N,Net-(J2-Pad3)*%
X132220000Y-97080000D03*
%TO.P,J2,4,Pin_4*%
%TO.N,Net-(J2-Pad4)*%
X132220000Y-99620000D03*
%TO.P,J2,5,Pin_5*%
%TO.N,Net-(J2-Pad5)*%
X132220000Y-102160000D03*
%TO.P,J2,6,Pin_6*%
%TO.N,Net-(J2-Pad6)*%
X132220000Y-104700000D03*
%TO.P,J2,7,Pin_7*%
%TO.N,Net-(J2-Pad7)*%
X132220000Y-107240000D03*
%TO.P,J2,8,Pin_8*%
%TO.N,GND*%
X132220000Y-109780000D03*
%TD*%
D13*
%TO.N,Net-(J2-Pad7)*%
X143000000Y-106730000D02*
X132730000Y-106730000D01*
X132730000Y-106730000D02*
X132220000Y-107240000D01*
%TO.N,Net-(J1-Pad7)*%
X157000000Y-106730000D02*
X167270000Y-106730000D01*
X167270000Y-106730000D02*
X167780000Y-107240000D01*
%TO.N,Net-(J1-Pad6)*%
X157000000Y-105460000D02*
X166320000Y-105460000D01*
X166320000Y-105460000D02*
X167080000Y-104700000D01*
X167080000Y-104700000D02*
X167780000Y-104700000D01*
%TO.N,Net-(J2-Pad6)*%
X132980000Y-105460000D02*
X132220000Y-104700000D01*
X143000000Y-105460000D02*
X132980000Y-105460000D01*
%TO.N,GND*%
X143000000Y-108000000D02*
X136094000Y-108000000D01*
X136094000Y-108000000D02*
X134314000Y-109780000D01*
X134314000Y-109780000D02*
X132220000Y-109780000D01*
X157000000Y-108000000D02*
X163880000Y-108000000D01*
X163880000Y-108000000D02*
X165660000Y-109780000D01*
X165660000Y-109780000D02*
X167780000Y-109780000D01*
%TO.N,Net-(J1-Pad1)*%
X160670000Y-99110000D02*
X167780000Y-92000000D01*
X157000000Y-99110000D02*
X160670000Y-99110000D01*
%TO.N,Net-(J1-Pad2)*%
X157000000Y-100380000D02*
X161940000Y-100380000D01*
X161940000Y-100380000D02*
X167780000Y-94540000D01*
%TO.N,Net-(J1-Pad3)*%
X157000000Y-101650000D02*
X163210000Y-101650000D01*
X163210000Y-101650000D02*
X167780000Y-97080000D01*
%TO.N,Net-(J1-Pad4)*%
X157000000Y-102920000D02*
X164480000Y-102920000D01*
X164480000Y-102920000D02*
X167780000Y-99620000D01*
%TO.N,Net-(J1-Pad5)*%
X165750000Y-104190000D02*
X167780000Y-102160000D01*
X157000000Y-104190000D02*
X165750000Y-104190000D01*
%TO.N,GND*%
X157000000Y-108000000D02*
X143000000Y-108000000D01*
%TO.N,Net-(J2-Pad1)*%
X139330000Y-99110000D02*
X132220000Y-92000000D01*
X143000000Y-99110000D02*
X139330000Y-99110000D01*
%TO.N,Net-(J2-Pad2)*%
X143000000Y-100380000D02*
X138060000Y-100380000D01*
X138060000Y-100380000D02*
X132220000Y-94540000D01*
%TO.N,Net-(J2-Pad3)*%
X136790000Y-101650000D02*
X132220000Y-97080000D01*
X143000000Y-101650000D02*
X136790000Y-101650000D01*
%TO.N,Net-(J2-Pad4)*%
X135520000Y-102920000D02*
X132220000Y-99620000D01*
X143000000Y-102920000D02*
X135520000Y-102920000D01*
%TO.N,Net-(J2-Pad5)*%
X134250000Y-104190000D02*
X132220000Y-102160000D01*
X143000000Y-104190000D02*
X134250000Y-104190000D01*
%TD*%
M02*
